<?xml version="1.0" standalone="no"?>
<!DOCTYPE svg PUBLIC "-//W3C//DTD SVG 20010904//EN"
 "http://www.w3.org/TR/2001/REC-SVG-20010904/DTD/svg10.dtd">
<svg version="1.0" xmlns="http://www.w3.org/2000/svg"
 width="188.000000pt" height="188.000000pt" viewBox="0 0 188.000000 188.000000"
 preserveAspectRatio="xMidYMid meet">
<metadata>
Created by potrace 1.14, written by Peter Selinger 2001-2017
</metadata>
<g transform="translate(0.000000,188.000000) scale(0.100000,-0.100000)"
fill="#000000" stroke="none">
<path d="M336 1855 c-22 -7 -51 -22 -65 -33 -39 -29 -89 -98 -101 -140 -14
-50 -14 -1084 0 -1134 18 -63 70 -129 130 -162 49 -28 64 -31 135 -31 57 0 89
5 112 18 57 30 105 80 129 132 21 43 24 66 24 163 l0 112 88 0 87 0 138 -323
c79 -186 150 -338 167 -359 88 -107 288 -121 394 -27 59 52 80 109 74 192 -4
48 -25 109 -92 270 -94 227 -102 266 -67 342 10 23 45 64 80 94 98 85 144 185
157 339 8 100 -7 179 -52 270 -62 127 -174 215 -334 263 -72 22 -92 23 -520
26 -368 2 -452 0 -484 -12z m669 -365 c104 -17 150 -68 150 -165 0 -59 -3 -67
-34 -99 -53 -54 -101 -66 -273 -66 l-148 0 0 163 c0 90 3 167 7 170 10 11 230
8 298 -3z"/>
</g>
</svg>
