<svg xmlns="http://www.w3.org/2000/svg" viewBox="0 0 284 284">
  <defs>
    <filter id="Subtraction_4" x="0" y="0" filterUnits="userSpaceOnUse">
      <feOffset dx="3" input="SourceAlpha"/>
      <feGaussianBlur stdDeviation="3" result="blur"/>
      <feFlood flood-opacity="0.161"/>
      <feComposite operator="in" in2="blur"/>
      <feComposite in="SourceGraphic"/>
    </filter>
  </defs>
  <g transform="matrix(1, 0, 0, 1, 0, 0)" filter="url(#Subtraction_4)">
    <g id="Subtraction_4-2" data-name="Subtraction 4" transform="translate(-77 -74)" fill="#fff">
      <path d="M 333.9999084472656 346.0002746582031 L 98.0001220703125 346.0002746582031 C 94.79473114013672 346.0002746582031 91.78119659423828 344.7520141601562 89.51462554931641 342.4854125976562 C 87.24801635742188 340.2189025878906 85.99976348876953 337.2053833007812 85.99976348876953 333.9999084472656 L 85.99976348876953 168.9483489990234 C 107.8137664794922 168.202392578125 128.2335815429688 159.3331604003906 143.7834777832031 143.7832336425781 C 159.3337249755859 128.2329864501953 168.202880859375 107.813362121582 168.9483795166016 85.99976348876953 L 333.9999084472656 85.99980163574219 C 337.205322265625 85.99980163574219 340.2188720703125 87.24805450439453 342.4854125976562 89.51462554931641 C 344.7520141601562 91.78119659423828 346.0002746582031 94.79476165771484 346.0002746582031 98.0001220703125 L 346.0002746582031 333.9999084472656 C 346.0002746582031 337.2052917480469 344.7520141601562 340.2188415527344 342.4854125976562 342.4854125976562 C 340.2188720703125 344.7520141601562 337.205322265625 346.0002746582031 333.9999084472656 346.0002746582031 Z" stroke="none"/>
      <path d="M 333.9999084472656 343.000244140625 C 336.4040222167969 343.000244140625 338.6641235351562 342.0640563964844 340.3641357421875 340.364013671875 C 342.0640563964844 338.6641235351562 343.000244140625 336.4039916992188 343.000244140625 333.9999084472656 L 343.000244140625 98.00012969970703 C 343.000244140625 95.59609222412109 342.0640258789062 93.33589935302734 340.364013671875 91.6358642578125 C 338.6641540527344 89.93597412109375 336.4040222167969 88.99982452392578 333.9999084472656 88.99982452392578 L 171.8011169433594 88.99978637695312 C 170.3751525878906 110.4823913574219 161.3067169189453 130.5026245117188 145.9048156738281 145.9045562744141 C 130.5032043457031 161.3061370849609 110.4827117919922 170.3746490478516 88.99978637695312 171.8010406494141 L 88.99978637695312 333.9999084472656 C 88.99978637695312 336.4040222167969 89.93593597412109 338.6641540527344 91.63594055175781 340.3641052246094 C 93.33586120605469 342.0640563964844 95.59605407714844 343.000244140625 98.00012969970703 343.000244140625 L 333.9999084472656 343.000244140625 M 333.9999084472656 349.000244140625 L 98.00012969970703 349.000244140625 C 93.99340057373047 349.000244140625 90.2264404296875 347.4399108886719 87.39328765869141 344.6067199707031 C 84.56008911132812 341.7736206054688 82.99978637695312 338.0066833496094 82.99978637695312 333.9999084472656 L 82.99978637695312 165.9996337890625 C 105.1349411010742 165.9991302490234 125.9679412841797 157.3561248779297 141.6621704101562 141.6618957519531 C 157.3563995361328 125.9676666259766 165.9995880126953 105.1344375610352 165.9995880126953 82.99978637695312 L 333.9999084472656 82.99982452392578 C 338.0066833496094 82.99982452392578 341.7735900878906 84.56008911132812 344.6067199707031 87.39328765869141 C 347.4399108886719 90.22647857666016 349.000244140625 93.99340057373047 349.000244140625 98.00012969970703 L 349.000244140625 333.9999084472656 C 349.000244140625 338.0066833496094 347.4399108886719 341.7735900878906 344.6067199707031 344.6067199707031 C 341.7736206054688 347.4399108886719 338.0067138671875 349.000244140625 333.9999084472656 349.000244140625 Z" stroke="none" fill="#f65d19"/>
    </g>
  </g>
</svg>
