<svg xmlns="http://www.w3.org/2000/svg" viewBox="0 0 284 284.001">
  <defs>
    <filter id="Subtraction_5" x="0" y="0" filterUnits="userSpaceOnUse">
      <feOffset dy="3" input="SourceAlpha"/>
      <feGaussianBlur stdDeviation="3" result="blur"/>
      <feFlood flood-opacity="0.161"/>
      <feComposite operator="in" in2="blur"/>
      <feComposite in="SourceGraphic"/>
    </filter>
  </defs>
  <g transform="matrix(1, 0, 0, 1, 0, 0)" filter="url(#Subtraction_5)">
    <g id="Subtraction_5-2" data-name="Subtraction 5" transform="translate(9 6)" fill="#fff">
      <path d="M 180.0509033203125 263.0004272460938 L 15.00030517578125 263.0004272460938 C 11.79487705230713 263.0004272460938 8.781341552734375 261.7521667480469 6.514805316925049 259.4856262207031 C 4.248269557952881 257.2190856933594 3.000019788742065 254.2055206298828 3.000019788742065 251.0000915527344 L 3.000019788742065 15.00030899047852 C 3.000019788742065 11.79488086700439 4.248269557952881 8.781309127807617 6.514805316925049 6.514773368835449 C 8.781341552734375 4.248237609863281 11.79487705230713 2.999987602233887 15.00030517578125 2.999987602233887 L 251.0000915527344 2.999987602233887 C 254.2054901123047 2.999987602233887 257.2190551757812 4.248237609863281 259.4856262207031 6.514773368835449 C 261.7521667480469 8.781344413757324 263.0004272460938 11.7949161529541 263.0004272460938 15.00030899047852 L 263.0004272460938 180.0509796142578 C 241.1862030029297 180.7969512939453 220.7661285400391 189.6662750244141 205.2160949707031 205.21630859375 C 189.6656799316406 220.7667236328125 180.7964019775391 241.1866149902344 180.0509033203125 263.0004272460938 Z" stroke="none"/>
      <path d="M 177.1981048583984 260.0013732910156 C 178.6240844726562 238.5185699462891 187.6926727294922 218.4970703125 203.0947418212891 203.094970703125 C 218.4964904785156 187.6932525634766 238.5172424316406 178.6246795654297 260.0003967285156 177.1982879638672 L 260.0003967285156 15.00031757354736 C 260.0003967285156 12.59620189666748 259.064208984375 10.33600997924805 257.3642883300781 8.636124610900879 C 255.6643981933594 6.936202049255371 253.4042053222656 6.000009536743164 251.0000762939453 6.000009536743164 L 15.0003137588501 6.000009536743164 C 12.59619808197021 6.000009536743164 10.33600616455078 6.936202049255371 8.63612174987793 8.636124610900879 C 6.936198234558105 10.33600997924805 6.000006198883057 12.59620189666748 6.000006198883057 15.00031757354736 L 6.000006198883057 251.0001220703125 C 6.000006198883057 253.4042053222656 6.936198234558105 255.6643981933594 8.63612174987793 257.3642883300781 C 10.33600616455078 259.064208984375 12.59619808197021 260.0003967285156 15.00035190582275 260.0003967285156 L 177.1981048583984 260.0013732910156 M 182.9996948242188 266.0014038085938 L 182.9996948242188 266.0003967285156 L 15.0003137588501 266.0003967285156 C 10.99354457855225 266.0003967285156 7.226621627807617 264.4400939941406 4.393467426300049 261.60693359375 C 1.560313701629639 258.7737731933594 6.056565325707197e-06 255.0068511962891 6.056565325707197e-06 251.0001220703125 L 6.056565325707197e-06 15.00031757354736 C 6.056565325707197e-06 10.99354839324951 1.560313701629639 7.226624965667725 4.393467426300049 4.393471240997314 C 7.226621627807617 1.560317277908325 10.99354457855225 9.596604286343791e-06 15.0003137588501 9.596604286343791e-06 L 251.0000762939453 9.596604286343791e-06 C 255.0068511962891 9.596604286343791e-06 258.7737731933594 1.560317277908325 261.60693359375 4.393471240997314 C 264.4400939941406 7.226624965667725 266.0003967285156 10.99354839324951 266.0003967285156 15.00031757354736 L 266.0003967285156 182.9996948242188 C 243.8650512695312 183.0001983642578 223.0318145751953 191.6432342529297 207.3373870849609 207.3376312255859 C 191.6430053710938 223.0320434570312 182.9996948242188 243.8655548095703 182.9996948242188 266.0003967285156 L 182.9996948242188 266.0014038085938 Z" stroke="none" fill="#f65d19"/>
    </g>
  </g>
</svg>
