<svg xmlns="http://www.w3.org/2000/svg" viewBox="0 0 208.52 45.51"><defs><style>.cls-1{fill:#f65d19;}</style></defs><g id="Calque_2" data-name="Calque 2"><g id="Calque_1-2" data-name="Calque 1"><g id="Calque_2-2" data-name="Calque 2-2"><path class="cls-1" d="M203.37.68a5.13,5.13,0,0,0-4.61,2.82l-6,11.73-1.61-3.11h0l-4.24-7.95A6.56,6.56,0,0,0,181.1.68H160.77a6.59,6.59,0,0,0-6.58,6.58v9.65h-3.77a6.58,6.58,0,0,1-6.58-6.58V7.26A6.58,6.58,0,0,0,137.28.68h-.38a6.59,6.59,0,0,0-6.59,6.58v26.8H103.5a5.75,5.75,0,0,1-1.28-1.37c-1.11-1.72-1.67-5-1.67-9.79q0-12.82,6.41-12.83a5.13,5.13,0,0,1,4,2,6.44,6.44,0,0,1,1.28,2.56,5.12,5.12,0,0,0,5.39,3.54l1.67-.09a5.21,5.21,0,0,0,4.89-5.52,5.09,5.09,0,0,0-.37-1.63,17.88,17.88,0,0,0-3.84-6Q115.31,0,106.55,0,97.19,0,91.94,6.41T86.69,23.09A27.25,27.25,0,0,0,88.8,34H81.1a22.3,22.3,0,0,0,.4-4.16v-24A5.14,5.14,0,0,0,76.36.72H76A5.13,5.13,0,0,0,70.9,5.85V21a27.47,27.47,0,0,1-.31,5.13,4,4,0,0,1-1.87,2.38,7,7,0,0,1-4,1,5.63,5.63,0,0,1-4.4-1.41A6.73,6.73,0,0,1,59,23.52V15a6.58,6.58,0,0,0-6.58-6.58h-.62A6.58,6.58,0,0,0,45.24,15h0V30.63a20.71,20.71,0,0,0,.29,3.43h-7a5.12,5.12,0,0,1-4.77-3.19L33,29.09a5.24,5.24,0,0,1,1.82-6.2,9.64,9.64,0,0,0,2.74-3.05,14.18,14.18,0,0,0,1.58-6.75,11.78,11.78,0,0,0-4.22-9.43Q30.7.09,23.09.09H6.58A6.59,6.59,0,0,0,0,6.67V31.33a6.78,6.78,0,0,0,6.77,6.78h0a6.78,6.78,0,0,0,6.78-6.78h0v-4h4.27L22.25,38.9a10.25,10.25,0,0,0,9.59,6.61H132.73A11.12,11.12,0,0,0,143.84,34.4h0V27.65h3.77a6.59,6.59,0,0,1,6.58,6.58v4a6.57,6.57,0,0,0,6.57,6.57h.4a6.58,6.58,0,0,0,6.58-6.57v-21a5.13,5.13,0,0,1,5.13-5.13h1a5.15,5.15,0,0,1,4.45,2.57l5.79,9.91a6.45,6.45,0,0,1,.89,3.31v5.21a6.59,6.59,0,0,0,6.59,6.57h0a6.58,6.58,0,0,0,6.58-6.57V27.8a6.48,6.48,0,0,1,.79-3.14l8.88-16.35a5.13,5.13,0,0,0-4.5-7.63ZM13.55,18V9.47H19.8q5.13,0,5.19,4.23a3.53,3.53,0,0,1-1.55,3.13,7,7,0,0,1-4.11,1.08Z"/></g></g></g></svg>